<svg width="250" height="250" viewBox="0 0 250 250" fill="none" xmlns="http://www.w3.org/2000/svg">
    <circle cx="125" cy="125" r="125" fill="url(#paint0_linear)"/>
    <path d="M86.5755 76.1617C87.5751 75.6619 88.658 75.412 89.8241 75.412C91.3235 75.412 92.4064 75.7036 93.0727 76.2867C93.8224 76.8697 94.6137 77.1613 95.4467 77.1613C96.1964 77.1613 96.4463 77.4945 96.1964 78.1609C95.9465 78.8272 96.0298 79.452 96.4463 80.0351C96.7795 80.3682 96.9461 80.7847 96.9461 81.2845C96.9461 82.7839 95.1968 85.2828 91.6983 88.7813C90.1157 90.364 88.9495 91.6134 88.1998 92.5297C87.5334 93.3627 86.7005 94.5289 85.7009 96.0282C84.7013 97.4443 83.8683 98.6521 83.202 99.6517C77.3711 107.482 74.4557 114.978 74.4557 122.142C74.4557 125.557 75.1221 128.723 76.4548 131.638C77.1212 133.137 77.6627 134.137 78.0792 134.637C78.5789 135.053 79.2453 135.345 80.0783 135.511C81.4111 135.845 84.618 136.011 89.6992 136.011C93.4476 136.011 96.2381 135.886 98.0706 135.636C98.5704 135.553 99.2784 135.47 100.195 135.386C101.111 135.303 102.111 135.22 103.193 135.136C104.36 135.053 105.234 134.97 105.817 134.887L110.315 134.512V131.513C110.149 126.848 109.566 124.016 108.566 123.017C108.066 122.517 107.15 122.683 105.817 123.516C104.734 124.1 103.485 124.391 102.069 124.391C99.6533 124.391 97.9457 123.683 96.9461 122.267C96.363 121.434 96.0715 120.268 96.0715 118.768C96.0715 116.27 96.6962 114.437 97.9457 113.271C101.694 109.856 103.818 108.148 104.318 108.148C104.568 108.148 105.401 107.607 106.817 106.524C108.233 105.441 109.899 104.899 111.815 104.899C113.731 104.899 114.772 105.066 114.938 105.399C115.022 105.566 115.855 106.357 117.437 107.773C119.02 109.106 119.811 109.981 119.811 110.397C119.811 111.063 120.02 111.73 120.436 112.396C121.102 113.562 121.81 115.77 122.56 119.018C123.393 122.267 123.851 124.891 123.935 126.89L124.559 142.758L124.809 154.378L122.06 157.127C120.144 158.96 118.312 159.876 116.563 159.876C115.397 159.876 114.147 159.418 112.814 158.501C110.565 156.919 109.441 154.212 109.441 150.38C109.441 149.131 109.482 148.131 109.566 147.381C109.649 146.548 109.691 145.465 109.691 144.133C109.691 142.3 109.399 141.384 108.816 141.384C108.316 141.384 107.567 141.967 106.567 143.133C105.484 144.216 104.609 144.757 103.943 144.757C102.944 144.757 99.0702 145.715 92.3231 147.631C90.2406 148.214 87.7 148.506 84.7013 148.506C79.5369 148.506 75.3303 147.756 72.0817 146.257C70.6657 145.59 69.1246 144.299 67.4587 142.383C65.7927 140.384 64.4183 138.302 63.3355 136.136C62.4192 134.304 61.8777 132.804 61.7112 131.638C61.5446 130.389 61.4613 127.681 61.4613 123.516C61.4613 117.519 61.961 113.312 62.9606 110.897C64.0435 108.231 64.9181 106.44 65.5845 105.524C66.0843 104.774 66.5424 103.733 66.9589 102.4C67.2088 101.401 68.1251 99.9016 69.7077 97.9024C71.1238 96.2365 71.8318 95.1536 71.8318 94.6538C71.8318 94.3206 72.29 93.6959 73.2062 92.7796C73.6227 92.3631 74.2475 91.4468 75.0804 90.0308C75.9967 88.5314 76.6214 87.6151 76.9546 87.2819C77.2878 86.9488 78.0375 85.9492 79.2037 84.2832C80.4531 82.6173 81.2861 81.5761 81.7026 81.1596C81.9525 80.8264 82.3273 80.3682 82.8271 79.7852C83.3269 79.2021 83.7017 78.7439 83.9516 78.4107C84.2848 78.0776 84.6597 77.7027 85.0762 77.2862C85.5759 76.8697 86.0757 76.4949 86.5755 76.1617ZM160.168 85.5327C155.753 84.2832 151.339 83.4919 146.924 83.1587L141.051 82.6589L141.426 84.783C141.676 85.616 142.009 87.0737 142.426 89.1562C144.508 97.8191 145.799 102.692 146.299 103.775C146.715 104.441 146.924 105.316 146.924 106.399C146.924 108.231 147.59 109.148 148.923 109.148C149.506 109.148 150.006 109.106 150.422 109.023C154.67 108.273 160.501 106.066 167.915 102.4C175.328 98.6521 179.035 96.1115 179.035 94.7787C179.035 93.6126 177.119 92.1132 173.287 90.2807C169.539 88.4481 165.166 86.8655 160.168 85.5327ZM132.805 72.4133C133.554 71.9135 134.013 71.6636 134.179 71.6636C134.262 71.6636 135.054 72.0385 136.553 72.7881C138.053 73.6211 139.344 74.0376 140.427 74.0376C140.676 74.0376 145.758 74.7456 155.67 76.1617C158.502 76.4949 162.126 77.3279 166.54 78.6606C171.038 79.9934 174.579 81.3262 177.161 82.6589C179.493 83.8251 181.742 85.4494 183.908 87.5318C186.157 89.6143 187.49 91.3219 187.906 92.6547C188.239 93.5709 188.406 94.5289 188.406 95.5284C188.406 98.777 186.407 101.942 182.409 105.024C180.659 106.357 177.952 108.023 174.287 110.022C170.705 111.938 167.956 113.188 166.041 113.771C158.877 116.186 155.295 117.602 155.295 118.019C155.295 118.435 156.545 119.352 159.044 120.768C163.292 123.017 167.373 125.682 171.288 128.764C175.203 131.763 178.077 134.553 179.91 137.136C182.825 141.051 184.616 143.758 185.282 145.257C186.032 146.757 186.698 149.422 187.281 153.254C187.531 154.503 187.656 155.586 187.656 156.502C187.656 157.669 187.406 159.043 186.907 160.626C186.074 163.458 184.491 166.373 182.159 169.372C179.91 172.371 177.536 174.62 175.037 176.119C170.872 178.535 168.29 179.742 167.29 179.742C167.04 179.742 165.666 179.159 163.167 177.993C161.834 177.493 161.168 176.369 161.168 174.62C161.168 173.453 161.501 172.079 162.167 170.496C162.584 169.58 163.125 168.872 163.792 168.372C164.458 167.956 165.832 167.331 167.915 166.498C169.414 165.915 171.122 164.832 173.038 163.249C174.953 161.667 176.245 160.292 176.911 159.126C177.494 157.96 177.786 156.169 177.786 153.754C177.786 151.338 177.078 148.881 175.661 146.382C172.08 139.968 165.374 134.304 155.545 129.389C153.379 128.389 152.088 127.89 151.672 127.89H151.547C151.297 127.973 151.422 129.181 151.922 131.513C152.088 132.346 152.713 137.136 153.796 145.882C154.879 156.128 155.42 161.542 155.42 162.125C155.42 162.708 155.295 163 155.045 163C154.795 163 154.504 163.416 154.171 164.249C153.837 165.332 152.63 165.873 150.547 165.873C149.881 165.873 149.423 165.748 149.173 165.499C148.84 165.165 148.381 165.082 147.798 165.249C147.299 165.499 146.591 165.04 145.674 163.874C144.841 162.708 144.425 160.751 144.425 158.002C144.342 151.921 143.717 144.549 142.551 135.886C141.384 127.223 140.26 121.809 139.177 119.643C138.511 118.144 138.177 116.978 138.177 116.145C138.177 116.061 138.177 115.936 138.177 115.77C138.261 115.52 138.302 115.353 138.302 115.27C138.386 115.02 138.427 114.562 138.427 113.896C138.427 111.896 137.678 108.398 136.178 103.4C135.928 102.567 135.554 101.234 135.054 99.4018C134.637 97.5692 134.387 96.4864 134.304 96.1532C133.554 93.321 133.138 91.8217 133.055 91.6551C132.888 91.3219 132.638 90.4473 132.305 89.0312C131.972 87.5318 131.597 86.1158 131.18 84.783C130.764 83.4503 130.389 82.7006 130.056 82.534C128.89 81.8676 127.807 80.9513 126.807 79.7852C125.891 78.619 125.433 77.6611 125.433 76.9114C125.433 75.9951 125.849 75.2038 126.682 74.5374C127.599 73.7877 128.64 73.4129 129.806 73.4129C130.806 73.4129 131.805 73.0797 132.805 72.4133Z" fill="white"/>
    <defs>
        <linearGradient id="paint0_linear" x1="-10.5" y1="-35" x2="282" y2="276.5" gradientUnits="userSpaceOnUse">
            <stop offset="0.276758" stop-color="#FF7979"/>
            <stop offset="0.552194" stop-color="#A687F1"/>
            <stop offset="0.857153" stop-color="#3498DB"/>
        </linearGradient>
    </defs>
</svg>  